<svg width="120" height="20" viewBox="0 0 120 20" fill="none" xmlns="http://www.w3.org/2000/svg">
<path d="M114.031 11.3563C114.195 11.8016 114.468 12.1592 114.851 12.4292C115.248 12.6856 115.624 12.8138 115.979 12.8138C116.417 12.8138 116.759 12.7463 117.005 12.6113C117.251 12.4629 117.374 12.2605 117.374 12.004C117.374 11.8556 117.299 11.7274 117.149 11.6194C117.012 11.498 116.827 11.39 116.595 11.2955C116.362 11.2011 116.062 11.0864 115.692 10.9514C115.036 10.722 114.489 10.4993 114.051 10.2834C113.614 10.0675 113.224 9.76383 112.882 9.37247C112.554 8.96761 112.39 8.46829 112.39 7.87449C112.39 7.2807 112.554 6.76788 112.882 6.33603C113.224 5.90418 113.682 5.57355 114.256 5.34413C114.831 5.11471 115.474 5 116.185 5C116.636 5 117.108 5.09447 117.6 5.2834C118.092 5.45884 118.537 5.73549 118.933 6.11336C119.344 6.49123 119.631 6.95682 119.795 7.51012L117.641 8.31984C117.491 7.861 117.279 7.55735 117.005 7.40891C116.732 7.26046 116.458 7.18623 116.185 7.18623C115.815 7.18623 115.528 7.24696 115.323 7.36842C115.132 7.48988 115.036 7.65857 115.036 7.87449C115.036 8.00945 115.104 8.1309 115.241 8.23887C115.378 8.34683 115.576 8.45479 115.836 8.56275C116.096 8.67071 116.383 8.77868 116.697 8.88664C117.354 9.11606 117.901 9.34548 118.338 9.5749C118.79 9.79082 119.179 10.0945 119.508 10.4858C119.836 10.8772 120 11.363 120 11.9433C120 12.5641 119.829 13.1039 119.487 13.5628C119.159 14.0216 118.687 14.3792 118.072 14.6356C117.47 14.8785 116.773 15 115.979 15C115.46 15 114.933 14.892 114.4 14.6761C113.867 14.4602 113.388 14.1633 112.964 13.7854C112.54 13.4076 112.219 12.9757 112 12.4899L114.031 11.3563Z" fill="#4D4D4D"/>
<path d="M108.132 6.97632C108.308 6.55222 108.553 6.18969 108.868 5.88871C109.195 5.57406 109.541 5.34149 109.906 5.191C110.283 5.04052 110.648 4.97895 111 5.00631V7.38674C110.484 7.3457 110.031 7.46198 109.642 7.7356C109.252 8.00921 108.95 8.3649 108.736 8.80268C108.522 9.24046 108.415 9.68508 108.415 10.1365V15H106V5.00631H108.415V7.05841L108.132 6.97632Z" fill="#4D4D4D"/>
<path d="M100.11 15C99.1143 15 98.2265 14.7883 97.4469 14.3648C96.6818 13.9413 96.0827 13.3538 95.6496 12.6025C95.2166 11.8374 95 10.9768 95 10.0205C95 9.03689 95.2166 8.1694 95.6496 7.41803C96.0827 6.65301 96.6818 6.05874 97.4469 5.63525C98.2265 5.21175 99.1143 5 100.11 5C101.092 5 101.908 5.19126 102.557 5.57377C103.207 5.95628 103.662 6.33197 103.922 6.70082C104.196 7.06967 104.398 7.39754 104.528 7.68443C104.773 8.18989 104.918 8.71585 104.961 9.26229C105.004 9.80874 105.012 10.321 104.983 10.7992V10.9631H97.6635C97.7501 11.3183 97.9161 11.6393 98.1615 11.9262C98.407 12.1995 98.7029 12.418 99.0494 12.582C99.3958 12.7322 99.7495 12.8074 100.11 12.8074C100.558 12.8074 100.933 12.7527 101.236 12.6434C101.554 12.5205 101.799 12.3839 101.973 12.2336C102.146 12.0697 102.283 11.9126 102.384 11.7623L104.658 12.623C104.369 13.2787 103.835 13.8388 103.055 14.3033C102.276 14.7678 101.294 15 100.11 15ZM102.406 9.18033C102.319 8.78415 102.182 8.43579 101.994 8.13525C101.807 7.8347 101.554 7.60246 101.236 7.43852C100.919 7.27459 100.544 7.19262 100.11 7.19262C99.4897 7.19262 98.9555 7.37705 98.508 7.7459C98.0749 8.10109 97.7934 8.57923 97.6635 9.18033H102.406Z" fill="#4D4D4D"/>
<path d="M90.9962 15H88.9272L85 5H87.682L89.9617 11.4476L92.2797 5H95L90.9962 15Z" fill="#4D4D4D"/>
<path d="M82.8921 5.02049V15H80.1079V5.02049H82.8921ZM81.5108 0C81.9424 0 82.295 0.136612 82.5683 0.409836C82.8561 0.669399 83 1.0041 83 1.41393C83 1.83743 82.8561 2.18579 82.5683 2.45902C82.295 2.71858 81.9424 2.84836 81.5108 2.84836C81.0647 2.84836 80.6978 2.71858 80.4101 2.45902C80.1367 2.18579 80 1.83743 80 1.41393C80 1.0041 80.1367 0.669399 80.4101 0.409836C80.6978 0.136612 81.0647 0 81.5108 0Z" fill="#4D4D4D"/>
<path d="M78 8.41416C78 9.75098 77.7236 10.9174 77.1708 11.9135C76.618 12.8965 75.8338 13.6566 74.8182 14.194C73.8026 14.7182 72.607 14.9869 71.2314 15C69.843 15 68.596 14.6789 67.4904 14.0367C66.3976 13.3945 65.5427 12.5033 64.9256 11.363C64.3085 10.2228 64 8.93185 64 7.49017C64 6.03539 64.3085 4.74443 64.9256 3.6173C65.5427 2.47706 66.3976 1.5924 67.4904 0.963303C68.596 0.321101 69.843 0 71.2314 0C72.7227 0 73.9954 0.347314 75.0496 1.04194C76.1038 1.72346 76.888 2.5557 77.4022 3.53866L75.3003 4.69856C74.9403 4.00393 74.4132 3.41415 73.719 2.92923C73.0248 2.4443 72.1956 2.20183 71.2314 2.20183C70.2801 2.20183 69.4444 2.42464 68.7245 2.87025C68.0046 3.30275 67.4518 3.91874 67.0661 4.71822C66.6804 5.50459 66.4876 6.42857 66.4876 7.49017C66.4876 8.55177 66.6804 9.48231 67.0661 10.2818C67.4518 11.0813 68.0046 11.6972 68.7245 12.1298C69.4444 12.5623 70.2801 12.7785 71.2314 12.7785C72.0285 12.7654 72.7484 12.6343 73.3912 12.3853C74.034 12.1232 74.5482 11.7235 74.9339 11.1861C75.3196 10.6356 75.5188 9.94102 75.5317 9.10223H71.4435V7.05767H78V8.41416Z" fill="#4D4D4D"/>
<path d="M48.8192 19L51.125 13.8261L47 5H50.0038L52.5635 10.9246L55.0385 5H58L54.1712 13.6841L51.8019 19H48.8192Z" fill="#4D4D4D"/>
<path d="M42.0816 13.2307C42.5442 13.2307 42.9456 13.116 43.2857 12.8868C43.6395 12.6433 43.9048 12.2994 44.0816 11.8553C44.2721 11.3968 44.3673 10.8668 44.3673 10.265C44.3673 9.66332 44.2721 9.1404 44.0816 8.69628C43.9048 8.23782 43.6395 7.88682 43.2857 7.64327C42.9456 7.39971 42.5442 7.27794 42.0816 7.27794C41.6327 7.27794 41.2177 7.41404 40.8367 7.68625C40.4694 7.94413 40.1769 8.30229 39.9592 8.76075C39.7415 9.2192 39.6327 9.72063 39.6327 10.265C39.6327 10.8095 39.7415 11.3109 39.9592 11.7693C40.1769 12.2278 40.4694 12.586 40.8367 12.8438C41.2177 13.1017 41.6327 13.2307 42.0816 13.2307ZM42.3673 5C43.2789 5 44.0816 5.22923 44.7755 5.68768C45.483 6.13181 46.0272 6.75501 46.4082 7.55731C46.8027 8.34527 47 9.24785 47 10.265C47 11.2966 46.8027 12.2135 46.4082 13.0158C46.0272 13.8037 45.483 14.4198 44.7755 14.8639C44.0816 15.308 43.2789 15.5301 42.3673 15.5301C42.1361 15.5301 41.8571 15.4871 41.5306 15.4011C41.2041 15.3152 40.8639 15.1576 40.5102 14.9284C40.1565 14.6991 39.8503 14.3911 39.5918 14.0043L39.6327 13.639V20H37V5.02149H39.6327V6.80516L39.5918 6.52579C39.9592 5.9957 40.415 5.60888 40.9592 5.36533C41.517 5.12178 41.9864 5 42.3673 5Z" fill="#4D4D4D"/>
<path d="M31.0816 13.2307C31.5442 13.2307 31.9456 13.116 32.2857 12.8868C32.6395 12.6433 32.9048 12.2994 33.0816 11.8553C33.2721 11.3968 33.3673 10.8668 33.3673 10.265C33.3673 9.66332 33.2721 9.1404 33.0816 8.69628C32.9048 8.23782 32.6395 7.88682 32.2857 7.64327C31.9456 7.39971 31.5442 7.27794 31.0816 7.27794C30.6327 7.27794 30.2177 7.41404 29.8367 7.68625C29.4694 7.94413 29.1769 8.30229 28.9592 8.76075C28.7415 9.2192 28.6327 9.72063 28.6327 10.265C28.6327 10.8095 28.7415 11.3109 28.9592 11.7693C29.1769 12.2278 29.4694 12.586 29.8367 12.8438C30.2177 13.1017 30.6327 13.2307 31.0816 13.2307ZM31.3673 5C32.2789 5 33.0816 5.22923 33.7755 5.68768C34.483 6.13181 35.0272 6.75501 35.4082 7.55731C35.8027 8.34527 36 9.24785 36 10.265C36 11.2966 35.8027 12.2135 35.4082 13.0158C35.0272 13.8037 34.483 14.4198 33.7755 14.8639C33.0816 15.308 32.2789 15.5301 31.3673 15.5301C31.1361 15.5301 30.8571 15.4871 30.5306 15.4011C30.2041 15.3152 29.8639 15.1576 29.5102 14.9284C29.1565 14.6991 28.8503 14.3911 28.5918 14.0043L28.6327 13.639V20H26V5.02149H28.6327V6.80516L28.5918 6.52579C28.9592 5.9957 29.415 5.60888 29.9592 5.36533C30.517 5.12178 30.9864 5 31.3673 5Z" fill="#4D4D4D"/>
<path d="M18.6311 15C17.7158 15 16.9098 14.7891 16.2131 14.3673C15.5164 13.932 14.9699 13.3401 14.5738 12.5918C14.1913 11.8299 14 10.966 14 10C14 9.03401 14.1913 8.17687 14.5738 7.42857C14.9699 6.66667 15.5164 6.07483 16.2131 5.65306C16.9098 5.23129 17.7158 5.02041 18.6311 5.02041C19.1503 5.02041 19.6626 5.14286 20.168 5.38775C20.6872 5.61905 21.1175 5.97959 21.459 6.46939L21.3566 6.61224V5H24V14.9388H21.3566V13.3878L21.459 13.551C21.2268 13.8912 20.9467 14.1701 20.6189 14.3878C20.3046 14.5918 19.9768 14.7415 19.6352 14.8367C19.2937 14.9456 18.959 15 18.6311 15ZM18.9385 12.8163C19.3757 12.8163 19.7787 12.6939 20.1475 12.449C20.5164 12.2041 20.8101 11.8707 21.0287 11.449C21.2609 11.0136 21.3771 10.5306 21.3771 10C21.3771 9.46939 21.2609 8.9932 21.0287 8.57143C20.8101 8.13605 20.5164 7.79592 20.1475 7.55102C19.7787 7.30612 19.3757 7.18367 18.9385 7.18367C18.474 7.18367 18.0642 7.29932 17.709 7.53061C17.3675 7.7619 17.1011 8.08844 16.9098 8.5102C16.7322 8.93197 16.6434 9.42857 16.6434 10C16.6434 10.585 16.7322 11.0884 16.9098 11.5102C17.1011 11.932 17.3675 12.2585 17.709 12.4898C18.0642 12.7075 18.474 12.8163 18.9385 12.8163Z" fill="#4D4D4D"/>
<path d="M12 15H9.35385V8.40241H2.64615V15H0V0H2.64615V6.17647H9.35385V0H12V15Z" fill="#4D4D4D"/>
</svg>
