<svg width="161" height="26" viewBox="0 0 161 26" fill="none" xmlns="http://www.w3.org/2000/svg">
<path d="M151.192 15.509C151.406 16.0993 151.764 16.5733 152.265 16.9311C152.784 17.271 153.276 17.4409 153.741 17.4409C154.313 17.4409 154.76 17.3515 155.082 17.1726C155.404 16.9758 155.565 16.7075 155.565 16.3676C155.565 16.1708 155.467 16.0009 155.27 15.8578C155.091 15.6968 154.85 15.5537 154.546 15.4285C154.242 15.3033 153.848 15.1512 153.365 14.9723C152.507 14.6682 151.791 14.3731 151.219 14.0869C150.646 13.8007 150.136 13.3982 149.689 12.8794C149.26 12.3428 149.045 11.6809 149.045 10.8938C149.045 10.1068 149.26 9.42702 149.689 8.8546C150.136 8.28218 150.736 7.84392 151.487 7.53983C152.238 7.23573 153.079 7.08368 154.009 7.08368C154.599 7.08368 155.217 7.2089 155.861 7.45933C156.505 7.69188 157.086 8.05858 157.605 8.55945C158.141 9.06032 158.517 9.67746 158.732 10.4109L155.914 11.4842C155.717 10.876 155.44 10.4735 155.082 10.2767C154.725 10.0799 154.367 9.98156 154.009 9.98156C153.526 9.98156 153.151 10.0621 152.882 10.223C152.632 10.384 152.507 10.6076 152.507 10.8938C152.507 11.0727 152.596 11.2337 152.775 11.3768C152.954 11.5199 153.213 11.663 153.553 11.8061C153.893 11.9492 154.269 12.0924 154.68 12.2355C155.539 12.5396 156.254 12.8437 156.827 13.1478C157.417 13.434 157.927 13.8364 158.356 14.3552C158.785 14.874 159 15.5179 159 16.2871C159 17.11 158.776 17.8255 158.329 18.4337C157.9 19.0419 157.283 19.5159 156.478 19.8558C155.691 20.1778 154.778 20.3388 153.741 20.3388C153.061 20.3388 152.372 20.1957 151.675 19.9095C150.977 19.6233 150.351 19.2297 149.797 18.7288C149.242 18.228 148.822 17.6556 148.535 17.0116L151.192 15.509Z" fill="#0077FF"/>
<path d="M143.601 9.79374C143.852 9.23921 144.201 8.76517 144.648 8.37163C145.113 7.96021 145.605 7.65611 146.123 7.45934C146.66 7.26257 147.179 7.18207 147.68 7.21785V10.3304C146.946 10.2767 146.302 10.4288 145.748 10.7865C145.193 11.1443 144.764 11.6094 144.46 12.1818C144.156 12.7542 144.004 13.3356 144.004 13.9259V20.2851H140.569V7.21785H144.004V9.90107L143.601 9.79374Z" fill="#0077FF"/>
<path d="M132.474 20.3119C131.239 20.3119 130.139 20.0347 129.173 19.4801C128.225 18.9256 127.483 18.1564 126.946 17.1726C126.41 16.1708 126.141 15.0439 126.141 13.7917C126.141 12.5038 126.41 11.3679 126.946 10.384C127.483 9.3823 128.225 8.60416 129.173 8.04963C130.139 7.4951 131.239 7.21783 132.474 7.21783C133.69 7.21783 134.701 7.46827 135.506 7.96914C136.311 8.47 136.874 8.96193 137.196 9.44491C137.536 9.92789 137.786 10.3572 137.947 10.7329C138.251 11.3947 138.43 12.0834 138.484 12.7989C138.538 13.5145 138.547 14.1853 138.511 14.8113V15.026H129.442C129.549 15.4911 129.755 15.9115 130.059 16.2871C130.363 16.6449 130.73 16.9311 131.159 17.1457C131.588 17.3425 132.026 17.4409 132.474 17.4409C133.028 17.4409 133.493 17.3693 133.869 17.2262C134.262 17.0652 134.567 16.8864 134.781 16.6896C134.996 16.4749 135.166 16.2692 135.291 16.0725L138.108 17.1994C137.751 18.058 137.089 18.7915 136.123 19.3996C135.157 20.0078 133.94 20.3119 132.474 20.3119ZM135.318 12.6916C135.211 12.1728 135.041 11.7167 134.808 11.3232C134.575 10.9296 134.262 10.6255 133.869 10.4109C133.475 10.1962 133.01 10.0889 132.474 10.0889C131.704 10.0889 131.043 10.3304 130.488 10.8133C129.951 11.2784 129.603 11.9045 129.442 12.6916H135.318Z" fill="#0077FF"/>
<path d="M120.429 20.2851H117.531L112.03 7.21783H115.787L118.98 15.6431L122.226 7.21783H126.037L120.429 20.2851Z" fill="#0077FF"/>
<path d="M109.954 7.19101V20.2583H106.492V7.19101H109.954ZM108.236 0.617126C108.773 0.617126 109.211 0.796008 109.551 1.15377C109.909 1.49365 110.088 1.9319 110.088 2.46855C110.088 3.02308 109.909 3.47923 109.551 3.83699C109.211 4.17686 108.773 4.3468 108.236 4.3468C107.682 4.3468 107.226 4.17686 106.868 3.83699C106.528 3.47923 106.358 3.02308 106.358 2.46855C106.358 1.9319 106.528 1.49365 106.868 1.15377C107.226 0.796008 107.682 0.617126 108.236 0.617126Z" fill="#0077FF"/>
<path d="M103.921 11.4842C103.921 13.3088 103.536 14.9008 102.767 16.2603C101.998 17.6019 100.906 18.6394 99.4933 19.3728C98.0801 20.0884 96.4165 20.4551 94.5025 20.473C92.5706 20.473 90.8354 20.0347 89.2971 19.1582C87.7766 18.2817 86.587 17.0653 85.7284 15.509C84.8697 13.9527 84.4404 12.1908 84.4404 10.2231C84.4404 8.23748 84.8697 6.4755 85.7284 4.93712C86.587 3.38086 87.7766 2.17341 89.2971 1.31478C90.8354 0.438259 92.5706 0 94.5025 0C96.5775 0 98.3485 0.474036 99.8153 1.42211C101.282 2.35229 102.373 3.48819 103.089 4.82979L100.164 6.41289C99.6632 5.46482 98.9298 4.65986 97.9639 3.998C96.9979 3.33614 95.8441 3.00521 94.5025 3.00521C93.1788 3.00521 92.0161 3.3093 91.0143 3.9175C90.0126 4.50781 89.2434 5.34855 88.7068 6.43973C88.1701 7.51301 87.9018 8.77413 87.9018 10.2231C87.9018 11.672 88.1701 12.9421 88.7068 14.0332C89.2434 15.1244 90.0126 15.9652 91.0143 16.5555C92.0161 17.1458 93.1788 17.4409 94.5025 17.4409C95.6116 17.423 96.6133 17.2442 97.5077 16.9043C98.4021 16.5465 99.1176 16.0009 99.6543 15.2675C100.191 14.5162 100.468 13.5681 100.486 12.4233H94.7977V9.63276H103.921V11.4842Z" fill="#0077FF"/>
<path d="M65.1261 25.732L68.0508 18.8898L62.8185 7.21783H66.6287L69.8754 15.0528L73.0147 7.21783H76.7712L71.9146 18.702L68.9094 25.732H65.1261Z" fill="#0077FF"/>
<path d="M56.2019 17.4409C56.8101 17.4409 57.3378 17.2978 57.785 17.0116C58.2501 16.7075 58.5989 16.2782 58.8314 15.7237C59.0819 15.1512 59.2071 14.4894 59.2071 13.7381C59.2071 12.9868 59.0819 12.3339 58.8314 11.7793C58.5989 11.2069 58.2501 10.7686 57.785 10.4645C57.3378 10.1604 56.8101 10.0084 56.2019 10.0084C55.6116 10.0084 55.066 10.1783 54.5651 10.5182C54.0821 10.8402 53.6975 11.2874 53.4113 11.8598C53.1251 12.4322 52.982 13.0583 52.982 13.7381C52.982 14.4178 53.1251 15.0439 53.4113 15.6163C53.6975 16.1887 54.0821 16.6359 54.5651 16.9579C55.066 17.2799 55.6116 17.4409 56.2019 17.4409ZM56.5775 7.16418C57.776 7.16418 58.8314 7.45039 59.7437 8.02281C60.6739 8.57735 61.3894 9.35548 61.8903 10.3572C62.4091 11.3411 62.6684 12.468 62.6684 13.7381C62.6684 15.026 62.4091 16.1709 61.8903 17.1726C61.3894 18.1564 60.6739 18.9256 59.7437 19.4802C58.8314 20.0347 57.776 20.312 56.5775 20.312C56.2734 20.312 55.9067 20.2583 55.4774 20.151C55.0481 20.0436 54.6009 19.8469 54.1358 19.5607C53.6707 19.2744 53.2682 18.8899 52.9283 18.4069L52.982 17.9507V25.8931H49.5207V7.19102H52.982V9.41809L52.9283 9.06927C53.4113 8.40741 54.0106 7.92443 54.7261 7.62033C55.4595 7.31623 56.0767 7.16418 56.5775 7.16418Z" fill="#0077FF"/>
<path d="M40.9442 17.4409C41.5524 17.4409 42.0801 17.2978 42.5273 17.0116C42.9924 16.7075 43.3412 16.2782 43.5738 15.7237C43.8242 15.1512 43.9494 14.4894 43.9494 13.7381C43.9494 12.9868 43.8242 12.3339 43.5738 11.7793C43.3412 11.2069 42.9924 10.7686 42.5273 10.4645C42.0801 10.1604 41.5524 10.0084 40.9442 10.0084C40.3539 10.0084 39.8083 10.1783 39.3075 10.5182C38.8245 10.8402 38.4399 11.2874 38.1537 11.8598C37.8675 12.4322 37.7244 13.0583 37.7244 13.7381C37.7244 14.4178 37.8675 15.0439 38.1537 15.6163C38.4399 16.1887 38.8245 16.6359 39.3075 16.9579C39.8083 17.2799 40.3539 17.4409 40.9442 17.4409ZM41.3199 7.16418C42.5184 7.16418 43.5738 7.45039 44.4861 8.02281C45.4162 8.57735 46.1318 9.35548 46.6326 10.3572C47.1514 11.3411 47.4108 12.468 47.4108 13.7381C47.4108 15.026 47.1514 16.1709 46.6326 17.1726C46.1318 18.1564 45.4162 18.9256 44.4861 19.4802C43.5738 20.0347 42.5184 20.312 41.3199 20.312C41.0158 20.312 40.6491 20.2583 40.2197 20.151C39.7904 20.0436 39.3432 19.8469 38.8781 19.5607C38.413 19.2744 38.0106 18.8899 37.6707 18.4069L37.7244 17.9507V25.8931H34.263V7.19102H37.7244V9.41809L37.6707 9.06927C38.1537 8.40741 38.7529 7.92443 39.4684 7.62033C40.2019 7.31623 40.819 7.16418 41.3199 7.16418Z" fill="#0077FF"/>
<path d="M24.2938 20.3656C23.0953 20.3656 22.0399 20.0883 21.1276 19.5338C20.2153 18.9614 19.4998 18.1833 18.981 17.1994C18.4801 16.1977 18.2297 15.0618 18.2297 13.7917C18.2297 12.5217 18.4801 11.3947 18.981 10.4109C19.4998 9.40913 20.2153 8.631 21.1276 8.07646C22.0399 7.52193 23.0953 7.24467 24.2938 7.24467C24.9735 7.24467 25.6443 7.40566 26.3062 7.72765C26.9859 8.03174 27.5494 8.50578 27.9966 9.14975L27.8625 9.33758V7.21783H31.3238V20.2851H27.8625V18.2459L27.9966 18.4605C27.6925 18.9077 27.3258 19.2744 26.8965 19.5606C26.4851 19.829 26.0558 20.0257 25.6086 20.151C25.1614 20.2941 24.7231 20.3656 24.2938 20.3656ZM24.6963 17.4946C25.2687 17.4946 25.7964 17.3336 26.2794 17.0116C26.7623 16.6896 27.1469 16.2513 27.4331 15.6968C27.7372 15.1244 27.8893 14.4894 27.8893 13.7917C27.8893 13.0941 27.7372 12.468 27.4331 11.9135C27.1469 11.341 26.7623 10.8938 26.2794 10.5719C25.7964 10.2499 25.2687 10.0889 24.6963 10.0889C24.0881 10.0889 23.5514 10.2409 23.0863 10.545C22.6391 10.8491 22.2903 11.2784 22.0399 11.833C21.8073 12.3875 21.6911 13.0404 21.6911 13.7917C21.6911 14.5609 21.8073 15.2228 22.0399 15.7773C22.2903 16.3318 22.6391 16.7612 23.0863 17.0652C23.5514 17.3515 24.0881 17.4946 24.6963 17.4946Z" fill="#0077FF"/>
<path d="M15.6968 20.2583H12.2355V11.4305H3.46135V20.2583H0V0.187805H3.46135V8.45212H12.2355V0.187805H15.6968V20.2583Z" fill="#0077FF"/>
</svg>
